<svg width="24" height="24" viewBox="0 0 24 24" fill="none" xmlns="http://www.w3.org/2000/svg">
<path d="M8.55 20.5H5.3C4.8 20.5 4.375 20.325 4.025 19.975C3.675 19.625 3.5 19.2 3.5 18.7V12C3.5 10.8167 3.725 9.71267 4.175 8.688C4.625 7.66267 5.23333 6.76667 6 6C6.76667 5.23333 7.66267 4.625 8.688 4.175C9.71267 3.725 10.8167 3.5 12 3.5C13.1833 3.5 14.2873 3.725 15.312 4.175C16.3373 4.625 17.2333 5.23333 18 6C18.7667 6.76667 19.375 7.66267 19.825 8.688C20.275 9.71267 20.5 10.8167 20.5 12V18.7C20.5 19.2 20.325 19.625 19.975 19.975C19.625 20.325 19.2 20.5 18.7 20.5H15.45V13.425H19V12C19 10.05 18.3207 8.39567 16.962 7.037C15.604 5.679 13.95 5 12 5C10.05 5 8.396 5.679 7.038 7.037C5.67933 8.39567 5 10.05 5 12V13.425H8.55V20.5ZM7.05 14.925H5V18.7C5 18.7667 5.03333 18.8333 5.1 18.9C5.16667 18.9667 5.23333 19 5.3 19H7.05V14.925ZM16.95 14.925V19H18.7C18.7667 19 18.8333 18.9667 18.9 18.9C18.9667 18.8333 19 18.7667 19 18.7V14.925H16.95ZM16.95 14.925H19C19 14.925 18.9667 14.925 18.9 14.925C18.8333 14.925 18.7667 14.925 18.7 14.925H16.95ZM7.05 14.925H5.3C5.23333 14.925 5.16667 14.925 5.1 14.925C5.03333 14.925 5 14.925 5 14.925H7.05Z" fill="white"/>
</svg>
