<svg width="24" height="24" viewBox="0 0 24 24" fill="none" xmlns="http://www.w3.org/2000/svg">
<path d="M15.65 5.0001L11.975 8.6501L10.925 7.6001L12.775 5.7501H12C10.2667 5.7501 8.79167 6.36243 7.575 7.5871C6.35833 8.81243 5.75 10.3001 5.75 12.0501C5.75 12.4668 5.796 12.8791 5.888 13.2871C5.97933 13.6958 6.11667 14.1001 6.3 14.5001L5.175 15.6251C4.875 15.0584 4.646 14.4751 4.488 13.8751C4.32933 13.2751 4.25 12.6668 4.25 12.0501C4.25 9.88343 5.00433 8.04176 6.513 6.5251C8.021 5.00843 9.85 4.2501 12 4.2501H12.775L10.925 2.4001L11.975 1.3501L15.65 5.0001ZM8.35 19.0001L12.025 15.3501L13.075 16.4001L11.225 18.2501H12C13.7333 18.2501 15.2083 17.6378 16.425 16.4131C17.6417 15.1878 18.25 13.7001 18.25 11.9501C18.25 11.5334 18.2043 11.1208 18.113 10.7121C18.021 10.3041 17.8833 9.9001 17.7 9.5001L18.825 8.3751C19.125 8.94176 19.3543 9.5251 19.513 10.1251C19.671 10.7251 19.75 11.3334 19.75 11.9501C19.75 14.1168 18.996 15.9584 17.488 17.4751C15.9793 18.9918 14.15 19.7501 12 19.7501H11.225L13.075 21.6001L12.025 22.6501L8.35 19.0001Z" fill="white"/>
</svg>
