<svg width="24" height="24" viewBox="0 0 24 24" fill="none" xmlns="http://www.w3.org/2000/svg">
<path d="M8.3 18.9998H15.7C15.7667 18.9998 15.8333 18.9665 15.9 18.8998C15.9667 18.8331 16 18.7665 16 18.6998V8.9998H8V18.6998C8 18.7665 8.03333 18.8331 8.1 18.8998C8.16667 18.9665 8.23333 18.9998 8.3 18.9998ZM5.625 6.2998V4.7998H8.6L9.6 3.7998H14.4L15.4 4.7998H18.375V6.2998H5.625ZM8.3 20.4998C7.8 20.4998 7.375 20.3248 7.025 19.9748C6.675 19.6248 6.5 19.1998 6.5 18.6998V7.4998H17.5V18.6998C17.5 19.1998 17.325 19.6248 16.975 19.9748C16.625 20.3248 16.2 20.4998 15.7 20.4998H8.3ZM8 18.9998H16C16 18.9998 15.9667 18.9998 15.9 18.9998C15.8333 18.9998 15.7667 18.9998 15.7 18.9998H8.3C8.23333 18.9998 8.16667 18.9998 8.1 18.9998C8.03333 18.9998 8 18.9998 8 18.9998Z" fill="white"/>
</svg>
