<svg width="24" height="24" viewBox="0 0 24 24" fill="none" xmlns="http://www.w3.org/2000/svg">
<path d="M12 20.3249L10.875 19.3249C8.34167 17.0416 6.31233 15.0582 4.787 13.3749C3.26233 11.6916 2.5 9.9499 2.5 8.1499C2.5 6.73324 2.97933 5.54557 3.938 4.5869C4.896 3.6289 6.08333 3.1499 7.5 3.1499C8.3 3.1499 9.096 3.33724 9.888 3.7119C10.6793 4.08724 11.3833 4.69157 12 5.5249C12.6167 4.69157 13.321 4.08724 14.113 3.7119C14.9043 3.33724 15.7 3.1499 16.5 3.1499C17.9167 3.1499 19.104 3.6289 20.062 4.5869C21.0207 5.54557 21.5 6.73324 21.5 8.1499C21.5 9.9499 20.7373 11.6916 19.212 13.3749C17.6873 15.0582 15.6583 17.0416 13.125 19.3249L12 20.3249ZM12 18.2999C14.3833 16.1332 16.3127 14.2666 17.788 12.6999C19.2627 11.1332 20 9.61657 20 8.1499C20 7.1499 19.6667 6.31657 19 5.6499C18.3333 4.98324 17.5 4.6499 16.5 4.6499C15.7167 4.6499 14.9917 4.86657 14.325 5.2999C13.6583 5.73324 13.125 6.36657 12.725 7.1999H11.275C10.875 6.36657 10.3417 5.73324 9.675 5.2999C9.00833 4.86657 8.28333 4.6499 7.5 4.6499C6.5 4.6499 5.66667 4.98324 5 5.6499C4.33333 6.31657 4 7.1499 4 8.1499C4 9.61657 4.73767 11.1332 6.213 12.6999C7.68767 14.2666 9.61667 16.1332 12 18.2999Z" fill="white"/>
</svg>
