<svg width="24" height="24" viewBox="0 0 24 24" fill="none" xmlns="http://www.w3.org/2000/svg">
<path d="M12 15C12.8333 15 13.5417 14.7083 14.125 14.125C14.7083 13.5417 15 12.8333 15 12C15 11.1667 14.7083 10.4583 14.125 9.875C13.5417 9.29167 12.8333 9 12 9C11.1667 9 10.4583 9.29167 9.875 9.875C9.29167 10.4583 9 11.1667 9 12C9 12.8333 9.29167 13.5417 9.875 14.125C10.4583 14.7083 11.1667 15 12 15ZM12 16.5C10.75 16.5 9.68733 16.0627 8.812 15.188C7.93733 14.3127 7.5 13.25 7.5 12C7.5 10.75 7.93733 9.68733 8.812 8.812C9.68733 7.93733 10.75 7.5 12 7.5C13.25 7.5 14.3127 7.93733 15.188 8.812C16.0627 9.68733 16.5 10.75 16.5 12C16.5 13.25 16.0627 14.3127 15.188 15.188C14.3127 16.0627 13.25 16.5 12 16.5ZM2 12.75C1.78333 12.75 1.604 12.679 1.462 12.537C1.32067 12.3957 1.25 12.2167 1.25 12C1.25 11.7833 1.32067 11.604 1.462 11.462C1.604 11.3207 1.78333 11.25 2 11.25H4.25C4.46667 11.25 4.64567 11.3207 4.787 11.462C4.929 11.604 5 11.7833 5 12C5 12.2167 4.929 12.3957 4.787 12.537C4.64567 12.679 4.46667 12.75 4.25 12.75H2ZM19.75 12.75C19.5333 12.75 19.354 12.679 19.212 12.537C19.0707 12.3957 19 12.2167 19 12C19 11.7833 19.0707 11.604 19.212 11.462C19.354 11.3207 19.5333 11.25 19.75 11.25H22C22.2167 11.25 22.396 11.3207 22.538 11.462C22.6793 11.604 22.75 11.7833 22.75 12C22.75 12.2167 22.6793 12.3957 22.538 12.537C22.396 12.679 22.2167 12.75 22 12.75H19.75ZM12 5C11.7833 5 11.6043 4.929 11.463 4.787C11.321 4.64567 11.25 4.46667 11.25 4.25V2C11.25 1.78333 11.321 1.604 11.463 1.462C11.6043 1.32067 11.7833 1.25 12 1.25C12.2167 1.25 12.396 1.32067 12.538 1.462C12.6793 1.604 12.75 1.78333 12.75 2V4.25C12.75 4.46667 12.6793 4.64567 12.538 4.787C12.396 4.929 12.2167 5 12 5ZM12 22.75C11.7833 22.75 11.6043 22.6793 11.463 22.538C11.321 22.396 11.25 22.2167 11.25 22V19.75C11.25 19.5333 11.321 19.354 11.463 19.212C11.6043 19.0707 11.7833 19 12 19C12.2167 19 12.396 19.0707 12.538 19.212C12.6793 19.354 12.75 19.5333 12.75 19.75V22C12.75 22.2167 12.6793 22.396 12.538 22.538C12.396 22.6793 12.2167 22.75 12 22.75ZM6 7.05L4.75 5.825C4.6 5.675 4.529 5.49567 4.537 5.287C4.54567 5.079 4.61667 4.9 4.75 4.75C4.9 4.6 5.07933 4.525 5.288 4.525C5.496 4.525 5.675 4.6 5.825 4.75L7.05 6C7.2 6.15 7.275 6.325 7.275 6.525C7.275 6.725 7.2 6.9 7.05 7.05C6.91667 7.2 6.75 7.27067 6.55 7.262C6.35 7.254 6.16667 7.18333 6 7.05ZM18.175 19.25L16.95 18C16.8 17.85 16.725 17.675 16.725 17.475C16.725 17.275 16.8 17.1 16.95 16.95C17.0833 16.8 17.25 16.7293 17.45 16.738C17.65 16.746 17.8333 16.8167 18 16.95L19.25 18.175C19.4 18.325 19.471 18.504 19.463 18.712C19.4543 18.9207 19.3833 19.1 19.25 19.25C19.1 19.4 18.921 19.475 18.713 19.475C18.5043 19.475 18.325 19.4 18.175 19.25ZM16.95 7.05C16.8 6.91667 16.7293 6.75 16.738 6.55C16.746 6.35 16.8167 6.16667 16.95 6L18.175 4.75C18.325 4.6 18.5043 4.529 18.713 4.537C18.921 4.54567 19.1 4.61667 19.25 4.75C19.4 4.9 19.475 5.079 19.475 5.287C19.475 5.49567 19.4 5.675 19.25 5.825L18 7.05C17.85 7.2 17.675 7.275 17.475 7.275C17.275 7.275 17.1 7.2 16.95 7.05ZM4.75 19.25C4.6 19.1 4.525 18.9207 4.525 18.712C4.525 18.504 4.6 18.325 4.75 18.175L6 16.95C6.15 16.8 6.325 16.725 6.525 16.725C6.725 16.725 6.9 16.8 7.05 16.95C7.2 17.0833 7.271 17.25 7.263 17.45C7.25433 17.65 7.18333 17.8333 7.05 18L5.825 19.25C5.675 19.4 5.496 19.475 5.288 19.475C5.07933 19.475 4.9 19.4 4.75 19.25Z" fill="white"/>
</svg>
