<svg width="24" height="24" viewBox="0 0 24 24" fill="none" xmlns="http://www.w3.org/2000/svg">
<path d="M4.2499 18.8748V17.3748H6.2499V10.1248C6.2499 9.8748 6.26657 9.64147 6.2999 9.4248C6.33324 9.20814 6.3749 8.99147 6.4249 8.7748L2.0249 4.3748L3.0999 3.3248L20.9249 21.1498L19.8749 22.2248L16.4999 18.8748H4.2499ZM17.7499 15.1498L16.2499 13.6498V10.1248C16.2499 8.94147 15.8332 7.93714 14.9999 7.1118C14.1666 6.28714 13.1666 5.8748 11.9999 5.8748C11.5332 5.8748 11.0709 5.9538 10.6129 6.1118C10.1542 6.27047 9.7499 6.4998 9.3999 6.7998L8.3249 5.7248C8.6749 5.4248 9.05824 5.17047 9.4749 4.9618C9.89157 4.7538 10.3166 4.5998 10.7499 4.4998V3.7998C10.7499 3.4498 10.8709 3.1538 11.1129 2.9118C11.3542 2.67047 11.6499 2.5498 11.9999 2.5498C12.3499 2.5498 12.6456 2.67047 12.8869 2.9118C13.1289 3.1538 13.2499 3.4498 13.2499 3.7998V4.4998C14.4999 4.78314 15.5626 5.43747 16.4379 6.4628C17.3126 7.48747 17.7499 8.70814 17.7499 10.1248V15.1498ZM11.9999 21.7998C11.4999 21.7998 11.0749 21.6248 10.7249 21.2748C10.3749 20.9248 10.1999 20.4998 10.1999 19.9998H13.7999C13.7999 20.4998 13.6249 20.9248 13.2749 21.2748C12.9249 21.6248 12.4999 21.7998 11.9999 21.7998ZM7.7499 17.3748H14.9749L7.7999 10.1748C7.78324 10.2415 7.7709 10.3121 7.7629 10.3868C7.75424 10.4621 7.7499 10.5331 7.7499 10.5998V17.3748Z" fill="white"/>
</svg>
